<?xml version="1.0" encoding="utf-8"?>
<!-- Generator: Adobe Illustrator 23.0.6, SVG Export Plug-In . SVG Version: 6.00 Build 0)  -->
<svg version="1.1" id="Vectorportal.com" xmlns="http://www.w3.org/2000/svg" xmlns:xlink="http://www.w3.org/1999/xlink" x="0px"
	 y="0px" viewBox="0 0 660 660" style="enable-background:new 0 0 660 660;" xml:space="preserve">
<style type="text/css">
	.st0{fill-rule:evenodd;clip-rule:evenodd;fill:#EDECED;}
	.st1{fill-rule:evenodd;clip-rule:evenodd;fill:#433017;}
	.st2{fill-rule:evenodd;clip-rule:evenodd;fill:#664314;}
	.st3{fill-rule:evenodd;clip-rule:evenodd;fill:#E29500;}
	.st4{fill-rule:evenodd;clip-rule:evenodd;fill:#AD2A17;}
	.st5{fill-rule:evenodd;clip-rule:evenodd;fill:#C92F17;}
	.st6{fill-rule:evenodd;clip-rule:evenodd;fill:#F3AE00;}
	.st7{fill-rule:evenodd;clip-rule:evenodd;fill:#40BBC9;}
	.st8{fill-rule:evenodd;clip-rule:evenodd;fill:#7DCBDD;}
	.st9{fill-rule:evenodd;clip-rule:evenodd;fill:#875718;}
	.st10{fill-rule:evenodd;clip-rule:evenodd;fill:#4E3616;}
</style>
<g>
	<path class="st0" d="M344.52,556.33c82.19,0,149.22-31.53,149.22-70.2c0-38.66-67.03-70.19-149.22-70.19
		c-82.18,0-149.22,31.53-149.22,70.19C195.3,524.8,262.33,556.33,344.52,556.33"/>
	<path class="st1" d="M326.15,394.06c23.26-11.23,48.52-13.06,72.44-5.48l50-3.78v71.32c0,13.32-6.61,24.76-18.14,31.43
		l-59.14,34.14c-18.34,10.59-39.33,10.59-57.66,0l-60.7-35.04c-5.53-3.2-8.7-8.68-8.7-15.07v-71.32L326.15,394.06z"/>
	<path class="st2" d="M252.94,385.19l66.1-38.16c31.93-18.44,68.48-18.44,100.41,0l10.99,6.35c11.54,6.66,18.15,18.1,18.15,31.43
		c0,13.33-6.61,24.76-18.15,31.43l-59.14,34.14c-18.34,10.59-39.33,10.59-57.66,0l-60.7-35.04c-5.53-3.19-8.7-8.68-8.7-15.07
		S247.4,388.38,252.94,385.19"/>
	<path class="st3" d="M409.16,384.26c-15.12,7.98-30.23,15.96-45.34,23.95c-16.25,8.58-33.76,8.95-49.77,1.03
		c-0.92-0.45-1.84-0.91-2.76-1.37c-7.86-3.88-11.7-12.51-9.43-21.18c12.65-48.4,21.56-96.63-10.59-142.9
		c30.38-12.14,60.75-24.29,91.13-36.43c33.69,47.47,44,100.59,39.72,157.24C421.48,373.11,416.78,380.24,409.16,384.26"/>
	<path class="st1" d="M306.03,369.9c9.31-39.89,13.13-79.52-9.5-117.89c16.94-6.36,33.87-12.72,50.8-19.08
		c4.89,4.94,9.78,9.88,14.67,14.82c24.56,32.89,25.98,70.02,21,108.33c-1.13,8.67-6.18,15.59-14.09,19.3
		c-8.86,4.16-17.72,8.32-26.58,12.48C324.71,396.61,304.04,378.15,306.03,369.9"/>
	<path class="st4" d="M315.9,337.36c13.1,1.65,24.03-2.22,31.17-15.65c-3.15-19.96-6.3-39.92-9.45-59.88
		c-4.17,0.67-8.34,1.34-12.51,2.01C322.03,288.35,318.97,312.85,315.9,337.36"/>
	<path class="st5" d="M328,265.02c3.83,29.35-1.2,52.8-12.1,72.33c-9.21-2.89-18.41-5.79-27.62-8.68
		c13.58-15.57,19.24-35.77,15.99-61.17C312.18,266.68,320.09,265.85,328,265.02"/>
	<path class="st6" d="M333.31,99.88c47.47-27.41,140.6,83.26,50.51,135.27l-79.95,46.16c-98.39,56.81-158.57-72.89-62.46-128.38
		L333.31,99.88z"/>
	<path class="st1" d="M215.49,186.54c22.6,0,47.8,24.74,56.28,55.27c8.48,30.52-2.97,55.27-25.57,55.27
		c-22.6,0-47.8-24.75-56.28-55.27C181.44,211.29,192.89,186.54,215.49,186.54"/>
	<path class="st2" d="M198.68,222.1c13.49,0,28.53,14.77,33.59,32.99c5.06,18.22-1.77,32.99-15.26,32.99
		c-13.49,0-28.53-14.77-33.59-32.99C178.35,236.87,185.18,222.1,198.68,222.1"/>
	<path class="st1" d="M199.76,231.27c9.96,0,21.06,10.9,24.79,24.35c3.74,13.45-1.31,24.35-11.26,24.35
		c-9.96,0-21.06-10.9-24.79-24.35C184.76,242.17,189.8,231.27,199.76,231.27"/>
	<path class="st7" d="M203.27,234.22c8.46,0,17.89,9.26,21.07,20.69c2.63,9.45,0.15,17.42-5.58,19.9l0,0l-49.06,27.88l-19.98-39.56
		l47.85-27.14C199.16,234.84,201.07,234.22,203.27,234.22"/>
	<path class="st8" d="M153.82,262.27c8.46,0,17.89,9.26,21.07,20.69c3.17,11.43-1.11,20.69-9.57,20.69
		c-8.46,0-17.89-9.26-21.07-20.69C141.07,271.54,145.36,262.27,153.82,262.27"/>
	<path class="st1" d="M172.34,240.05c12.78,0,27.03,13.99,31.83,31.26c3.97,14.28,0.22,26.32-8.43,30.06h0l-26.07,14.81
		l-30.19-59.77l24.25-13.71v0C166.12,241,169.02,240.05,172.34,240.05"/>
	<path class="st2" d="M145.67,255.14c12.78,0,27.03,13.99,31.83,31.26c4.8,17.26-1.68,31.26-14.46,31.26
		c-12.78,0-27.03-14-31.83-31.26C126.41,269.13,132.89,255.14,145.67,255.14"/>
	<path class="st2" d="M145.67,255.14c12.78,0,27.03,13.99,31.83,31.26c3.97,14.28,0.22,26.32-8.43,30.06h0l-33.83,2.19l-19.21-31.28
		l21.03-29.57v0C139.45,256.09,142.34,255.14,145.67,255.14"/>
	<path class="st9" d="M122.8,283.93c7.18,0,15.19,7.86,17.88,17.56c2.69,9.7-0.94,17.56-8.12,17.56c-7.18,0-15.18-7.86-17.88-17.56
		C111.98,291.79,115.62,283.93,122.8,283.93"/>
	<path class="st10" d="M124.6,290.41c4.53,0,9.58,4.96,11.28,11.08c1.7,6.12-0.6,11.08-5.13,11.08c-4.53,0-9.58-4.96-11.28-11.08
		C117.78,295.37,120.07,290.41,124.6,290.41"/>
	<path class="st3" d="M128.53,293.34c2.6,1.52,4.95,4.6,5.93,8.14c0.79,2.84,0.54,5.39-0.5,7.07l-6.28-7.07L128.53,293.34z
		 M131.95,310.32l-4.86-7.62l-4.48,2.68c1.95,3.12,4.89,5.27,7.61,5.27C130.86,310.66,131.43,310.54,131.95,310.32 M121.34,302.83
		c-0.17-0.44-0.32-0.88-0.44-1.34c-1.41-5.06,0.49-9.17,4.24-9.17l1.53,9.29L121.34,302.83z"/>
</g>
</svg>
