<?xml version="1.0" encoding="utf-8"?>
<!-- Generator: Adobe Illustrator 23.0.6, SVG Export Plug-In . SVG Version: 6.00 Build 0)  -->
<svg version="1.1" id="Layer_1" xmlns="http://www.w3.org/2000/svg" xmlns:xlink="http://www.w3.org/1999/xlink" x="0px" y="0px"
	 viewBox="0 0 841.89 595.28" style="enable-background:new 0 0 841.89 595.28;" xml:space="preserve">
<style type="text/css">
	.st0{fill:url(#SVGID_1_);}
	.st1{fill:url(#SVGID_2_);}
	.st2{fill:#312783;}
	.st3{fill:url(#SVGID_3_);}
	.st4{fill:url(#SVGID_4_);}
	.st5{fill:url(#SVGID_5_);}
	.st6{fill:url(#SVGID_6_);}
	.st7{fill:url(#SVGID_7_);}
	.st8{fill:url(#SVGID_8_);}
</style>
<g>
	<g>
		<linearGradient id="SVGID_1_" gradientUnits="userSpaceOnUse" x1="413.6693" y1="284.8277" x2="417.1205" y2="288.279">
			<stop  offset="0" style="stop-color:#AFB1B5"/>
			<stop  offset="1" style="stop-color:#646F79"/>
		</linearGradient>
		<path class="st0" d="M434.39,309.95l2.29-3.94c0.47-0.82,1.52-1.1,2.34-0.62l6.46,3.75c0-2.75-1.41-5.43-3.97-6.91
			c-1.98-1.15-4.24-1.34-6.28-0.74c-0.41-0.17-0.79-0.43-1.12-0.77l-9.68-10.07l0,0l-6.83-7.11c-0.36-0.38-0.61-0.81-0.77-1.27
			c1.08-3.47-0.33-7.35-3.61-9.25c-2.55-1.48-5.58-1.38-7.97-0.01l6.46,3.75c0.82,0.47,1.09,1.52,0.62,2.34l-2.29,3.94
			c-0.47,0.82-1.52,1.1-2.34,0.62l-6.46-3.75c0,2.75,1.41,5.43,3.97,6.91c1.98,1.15,4.24,1.34,6.27,0.74
			c0.41,0.17,0.8,0.43,1.12,0.77l9.68,10.08l0,0l6.83,7.11c0.36,0.37,0.61,0.81,0.77,1.26c-1.08,3.47,0.33,7.35,3.61,9.25
			c2.55,1.48,5.58,1.38,7.97,0.01l-6.46-3.75C434.2,311.81,433.92,310.77,434.39,309.95z"/>
		<g>
			<linearGradient id="SVGID_2_" gradientUnits="userSpaceOnUse" x1="428.5183" y1="284.9353" x2="429.6687" y2="286.0857">
				<stop  offset="0" style="stop-color:#CCCCCC"/>
				<stop  offset="0.4505" style="stop-color:#777578"/>
				<stop  offset="0.792" style="stop-color:#79777A"/>
				<stop  offset="0.9148" style="stop-color:#807E81"/>
				<stop  offset="1" style="stop-color:#8C8B8E"/>
			</linearGradient>
			<path class="st1" d="M444.42,274.13l-2.79-2.79l-4.7,1.91l-1.91,4.7l-18.57,18.57c-0.84,0.84-0.9,2.15-0.13,2.92
				c0.77,0.77,2.08,0.71,2.92-0.13l18.57-18.57l4.7-1.91L444.42,274.13z"/>
			<g>
				<path class="st2" d="M405.31,317.43c-1.27,1.27-3.23,1.35-4.38,0.19l-2.79-2.79c-1.16-1.16-1.07-3.12,0.19-4.38l14.5-14.5
					c1.26-1.26,3.23-1.35,4.38-0.2l2.79,2.79c1.16,1.16,1.07,3.12-0.19,4.38L405.31,317.43z"/>
				<g>
					<linearGradient id="SVGID_3_" gradientUnits="userSpaceOnUse" x1="405.6146" y1="303.2328" x2="412.5183" y2="310.1365">
						<stop  offset="0" style="stop-color:#FDFEFF"/>
						<stop  offset="0.5275" style="stop-color:#777578"/>
						<stop  offset="1" style="stop-color:#8C8B8E"/>
					</linearGradient>
					<path class="st3" d="M401.87,311.09c-1.01,1.01-2.02,1.64-2.25,1.41l-0.56-0.56c-0.23-0.23,0.4-1.24,1.41-2.25l11.6-11.6
						c1.01-1.01,2.02-1.64,2.25-1.41l0.56,0.56c0.23,0.23-0.4,1.24-1.41,2.25L401.87,311.09z"/>
					<linearGradient id="SVGID_4_" gradientUnits="userSpaceOnUse" x1="405.616" y1="303.2354" x2="412.5173" y2="310.1367">
						<stop  offset="0" style="stop-color:#FDFEFF"/>
						<stop  offset="0.5275" style="stop-color:#777578"/>
						<stop  offset="1" style="stop-color:#8C8B8E"/>
					</linearGradient>
					<path class="st4" d="M406.06,315.28c-1.01,1.01-2.02,1.64-2.25,1.41l-0.56-0.56c-0.23-0.23,0.4-1.24,1.41-2.25l11.6-11.6
						c1.01-1.01,2.02-1.64,2.25-1.41l0.56,0.56c0.23,0.23-0.4,1.24-1.41,2.25L406.06,315.28z"/>
					<linearGradient id="SVGID_5_" gradientUnits="userSpaceOnUse" x1="405.6113" y1="303.2314" x2="412.52" y2="310.14">
						<stop  offset="0" style="stop-color:#FDFEFF"/>
						<stop  offset="0.5275" style="stop-color:#777578"/>
						<stop  offset="1" style="stop-color:#8C8B8E"/>
					</linearGradient>
					<path class="st5" d="M403.97,313.18c-1.01,1.01-2.02,1.64-2.25,1.41l-0.56-0.56c-0.23-0.23,0.4-1.24,1.41-2.25l11.6-11.6
						c1.01-1.01,2.02-1.64,2.25-1.41l0.56,0.56c0.23,0.23-0.4,1.24-1.41,2.25L403.97,313.18z"/>
				</g>
			</g>
		</g>
		<radialGradient id="SVGID_6_" cx="407.6711" cy="286.2237" r="2.3005" gradientUnits="userSpaceOnUse">
			<stop  offset="0.0275" style="stop-color:#FDFEFF"/>
			<stop  offset="0.5" style="stop-color:#AFB1B5"/>
			<stop  offset="1" style="stop-color:#646F79"/>
		</radialGradient>
		<path class="st6" d="M408.82,286.22c0,0.64-0.52,1.15-1.15,1.15c-0.64,0-1.15-0.52-1.15-1.15c0-0.64,0.51-1.15,1.15-1.15
			C408.31,285.07,408.82,285.59,408.82,286.22z"/>
		
			<radialGradient id="SVGID_7_" cx="277.7387" cy="613.3057" r="2.3015" gradientTransform="matrix(0.8609 0.5087 -0.2693 0.4557 334.7673 -147.4974)" gradientUnits="userSpaceOnUse">
			<stop  offset="0.0275" style="stop-color:#FDFEFF"/>
			<stop  offset="0.5" style="stop-color:#AFB1B5"/>
			<stop  offset="1" style="stop-color:#646F79"/>
		</radialGradient>
		<path class="st7" d="M409.7,273.86c-0.17,0.29-0.75,0.26-1.3-0.06c-0.55-0.33-0.85-0.82-0.68-1.11c0.17-0.29,0.75-0.26,1.3,0.06
			C409.57,273.07,409.87,273.57,409.7,273.86z"/>
	</g>
	
		<radialGradient id="SVGID_8_" cx="710.0371" cy="4032.8997" r="62.6912" gradientTransform="matrix(0.7344 0 0 0.0861 -99.7806 -24.6998)" gradientUnits="userSpaceOnUse">
		<stop  offset="0" style="stop-color:#1A1A1A"/>
		<stop  offset="0.0314" style="stop-color:#2B2B2B"/>
		<stop  offset="0.1284" style="stop-color:#5C5C5C"/>
		<stop  offset="0.2305" style="stop-color:#888888"/>
		<stop  offset="0.336" style="stop-color:#ADADAD"/>
		<stop  offset="0.4457" style="stop-color:#CBCBCB"/>
		<stop  offset="0.561" style="stop-color:#E2E2E2"/>
		<stop  offset="0.6844" style="stop-color:#F2F2F2"/>
		<stop  offset="0.8215" style="stop-color:#FCFCFC"/>
		<stop  offset="1" style="stop-color:#FFFFFF"/>
	</radialGradient>
	<path class="st8" d="M446.02,323.23c0,1.5-10.9,2.72-24.35,2.72c-13.45,0-24.35-1.22-24.35-2.72c0-1.5,10.9-2.72,24.35-2.72
		C435.12,320.51,446.02,321.73,446.02,323.23z"/>
</g>
</svg>
