<?xml version="1.0" encoding="utf-8"?>
<!-- Generator: Adobe Illustrator 23.0.6, SVG Export Plug-In . SVG Version: 6.00 Build 0)  -->
<svg version="1.1" id="Vectorportal.com" xmlns="http://www.w3.org/2000/svg" xmlns:xlink="http://www.w3.org/1999/xlink" x="0px"
	 y="0px" viewBox="0 0 660 660" style="enable-background:new 0 0 660 660;" xml:space="preserve">
<style type="text/css">
	.st0{fill-rule:evenodd;clip-rule:evenodd;fill:#F0F0F0;}
	.st1{fill-rule:evenodd;clip-rule:evenodd;fill:#DEDEDE;}
	.st2{fill-rule:evenodd;clip-rule:evenodd;fill:#0D0D2B;}
	.st3{fill-rule:evenodd;clip-rule:evenodd;fill:#FFCC00;}
	.st4{fill-rule:evenodd;clip-rule:evenodd;fill:#E0B300;}
	.st5{fill-rule:evenodd;clip-rule:evenodd;fill:#2D2D40;}
	.st6{fill-rule:evenodd;clip-rule:evenodd;fill:#404052;}
	.st7{fill-rule:evenodd;clip-rule:evenodd;fill:#CCCCCC;}
	.st8{fill-rule:evenodd;clip-rule:evenodd;fill:#E6E6E6;}
	.st9{fill-rule:evenodd;clip-rule:evenodd;fill:#808080;}
	.st10{fill-rule:evenodd;clip-rule:evenodd;fill:#6E6E7D;}
	.st11{fill-rule:evenodd;clip-rule:evenodd;fill:#303045;}
	.st12{fill-rule:evenodd;clip-rule:evenodd;fill:#F0C000;}
	.st13{fill-rule:evenodd;clip-rule:evenodd;fill:#FFDD57;}
	.st14{fill-rule:evenodd;clip-rule:evenodd;fill:#1C1C2B;}
	.st15{fill-rule:evenodd;clip-rule:evenodd;fill:#545463;}
</style>
<g>
	<rect x="2.26" y="2.26" class="st0" width="657.74" height="657.74"/>
	<ellipse class="st1" cx="337.15" cy="556.5" rx="211.9" ry="21.39"/>
	<g>
		<path class="st2" d="M350.07,447c-36.59,0.77-54.84,16.15-57.01,52.57c-4.23,1.22-5.68,6.66-5.68,10.7v30.75
			c0,9.21,10.17,19.72,19.38,19.72h180.81c4.18,0,9.02-4.51,9.02-8.69v-36.43c0-12.29-7.46-16.34-18.38-17.04l-35.93-44.62
			C399.57,450.02,392.79,450.93,350.07,447z"/>
		<path class="st3" d="M349.88,445.69c-36.59,0.77-57.66,17.45-56.82,53.88c1.58-22.07,15.52-36.81,45.63-41.94l12.7,31.75
			c2.82,7.06,11.78,12.03,19.38,12.03h93.25c6.74,0,11.48-0.55,14.2-2.84c0-13.26,0-26.52,0-39.77
			C435.5,454.86,392.6,449.63,349.88,445.69z"/>
		<path class="st4" d="M349.88,445.69c-1.03,0.02-2.05,0.06-3.06,0.11c0.1,1.51,0.43,3.15,0.97,4.84l8.69,27.24
			c2.18,6.82,8.41,11.31,15.57,11.21l97.88-1.38l0.13-2.95c0.34-7.48,2.48-13.66,8.17-17.04v-8.91
			C435.5,454.86,392.6,449.63,349.88,445.69z"/>
		<polygon class="st5" points="156.85,110.9 240.74,110.9 240.74,208.82 156.85,208.82 146.49,198.46 146.49,121.26 		"/>
		<polygon class="st6" points="156.85,208.82 146.49,198.46 146.49,121.26 156.85,110.9 		"/>
		<polygon class="st7" points="146.49,121.26 125.27,133.89 125.27,185.83 146.49,198.46 		"/>
		<polygon class="st8" points="125.27,133.89 119.06,142.98 119.06,176.74 125.27,185.83 		"/>
		<polygon class="st9" points="119.06,150.5 96.88,153.77 96.88,165.94 119.06,169.22 		"/>
		<path class="st2" d="M239.67,105.04h87.9c3.49,0,6.35,2.86,6.35,6.35v96.94c0,3.49-2.86,6.35-6.35,6.35h-87.9
			c-3.49,0-6.35-2.86-6.35-6.35v-96.94C233.32,107.9,236.18,105.04,239.67,105.04z"/>
		<path class="st10" d="M242.29,137.8h28.58c2.11,0,3.84,1.73,3.84,3.84v6.85c0,2.12-1.73,3.84-3.84,3.84h-28.58
			c-2.11,0-3.84-1.73-3.84-3.84v-6.85C238.45,139.53,240.17,137.8,242.29,137.8z"/>
		<path class="st11" d="M242.42,139.56h28.33c0.85,0,1.55,0.7,1.55,1.55v7.09c0,0.85-0.7,1.55-1.55,1.55h-28.33
			c-0.85,0-1.55-0.7-1.55-1.55v-7.09C240.86,140.26,241.56,139.56,242.42,139.56z"/>
		<path class="st10" d="M241.6,116.66h29.95c1.74,0,3.16,1.42,3.16,3.16v5.63c0,1.74-1.42,3.16-3.16,3.16H241.6
			c-1.74,0-3.16-1.42-3.16-3.16v-5.63C238.45,118.09,239.87,116.66,241.6,116.66z"/>
		<path class="st11" d="M242.14,117.27h28.88c0.7,0,1.27,0.57,1.27,1.27v5.83c0,0.7-0.57,1.28-1.27,1.28h-28.88
			c-0.7,0-1.28-0.57-1.28-1.28v-5.83C240.86,117.84,241.44,117.27,242.14,117.27z"/>
		<path class="st10" d="M242.29,184.26h28.58c2.11,0,3.84-1.73,3.84-3.84v-6.85c0-2.11-1.73-3.84-3.84-3.84h-28.58
			c-2.11,0-3.84,1.73-3.84,3.84v6.85C238.45,182.53,240.17,184.26,242.29,184.26z"/>
		<path class="st11" d="M242.42,182.5h28.33c0.85,0,1.55-0.7,1.55-1.55v-7.09c0-0.85-0.7-1.55-1.55-1.55h-28.33
			c-0.85,0-1.55,0.7-1.55,1.55v7.09C240.86,181.81,241.56,182.5,242.42,182.5z"/>
		<path class="st10" d="M241.6,205.4h29.95c1.74,0,3.16-1.42,3.16-3.16v-5.63c0-1.74-1.42-3.16-3.16-3.16H241.6
			c-1.74,0-3.16,1.42-3.16,3.16v5.63C238.45,203.98,239.87,205.4,241.6,205.4z"/>
		<path class="st11" d="M242.14,204.79h28.88c0.7,0,1.27-0.57,1.27-1.27v-5.83c0-0.7-0.57-1.27-1.27-1.27h-28.88
			c-0.7,0-1.28,0.57-1.28,1.27v5.83C240.86,204.22,241.44,204.79,242.14,204.79z"/>
		<path class="st10" d="M241.6,217.46h29.95c1.61,0,2.95-1.22,3.14-2.78h-35.02c-0.42,0-0.82-0.04-1.21-0.12
			C238.59,216.18,239.95,217.46,241.6,217.46z"/>
		<path class="st10" d="M241.6,102.26h29.95c1.61,0,2.95,1.22,3.14,2.78h-35.02c-0.42,0-0.82,0.04-1.21,0.12
			C238.59,103.54,239.95,102.26,241.6,102.26z"/>
		<path class="st2" d="M284.09,239.79c8.49,4.07,20.88,8.87,18.85,26.12l-2.47,20.93c-0.79,6.7,0.58,11.04,8.68,10.41l17.89-1.39
			l19.05-38.27l-20.89-22.56l-42.95-1L284.09,239.79z"/>
		<path class="st10" d="M297.63,242.73c14.36,3.87,14.57,21.54,9.19,43.12c-1.16,4.65-1.42,5.62,5.35,5.51l10.36-0.17l-13.01,3.04
			c-4.26,0.99-7.35-2.25-6.38-6.13C308.27,267.57,309.71,249.91,297.63,242.73z"/>
		<path class="st12" d="M384.41,208.66h-95.64c-7.87,0-14.32,6.44-14.32,14.32v8.51c0,6.2,3.32,8.33,8.65,8.3l26.58-0.13
			c8.78-0.04,18.16,10.28,18.19,19.06l0.05,20.19c-0.01,0.22-0.01,0.44,0,0.66c0.42,7.99-3.89,13.52-6.67,19.39
			c-0.68,1.42,0.94,3.81,2.51,4.01c2.4,0.31,5.31-0.85,6.68-2.84c3.11-4.52,2.54-11,5.85-15.37c2.21-2.92,5.13-5.19,9.69-5.19h24.11
			c7.87,0,14.32-6.44,14.32-14.32V208.66z"/>
		<path class="st4" d="M384.41,208.66h-87.26c1.25,5.16,5.93,9.02,11.47,9.02h75.79V208.66z"/>
		<path class="st3" d="M310.13,100.41h216.12c21.52,0,39.13,17.61,39.13,39.12v36.02c0,21.52-17.61,39.13-39.13,39.13H310.13
			c-6.49,0-11.8-5.31-11.8-11.8v-90.67C298.33,105.72,303.64,100.41,310.13,100.41z"/>
		<path class="st13" d="M558.94,118.09c4.07,6.17,6.44,13.54,6.44,21.44v36.02c0,5.2-1.03,10.18-2.9,14.73H298.33v-72.19H558.94z"/>
		<g>
			<rect x="160.97" y="113.7" class="st14" width="70.02" height="1.34"/>
			<rect x="160.97" y="115.04" class="st15" width="70.02" height="1.34"/>
		</g>
		<g>
			<g>
				<path class="st14" d="M160.97,121.88c23.34,0,46.68,0,70.02,0c0,0.45,0,0.89,0,1.34c-23.34,0-46.68,0-70.02,0
					C160.97,122.77,160.97,122.32,160.97,121.88z"/>
				<path class="st15" d="M160.97,123.21c23.34,0,46.68,0,70.02,0c0,0.45,0,0.89,0,1.34c-23.34,0-46.68,0-70.02,0
					C160.97,124.1,160.97,123.66,160.97,123.21z"/>
			</g>
			<g>
				<path class="st14" d="M160.97,130.05c23.34,0,46.68,0,70.02,0c0,0.45,0,0.89,0,1.34c-23.34,0-46.68,0-70.02,0
					C160.97,130.94,160.97,130.5,160.97,130.05z"/>
				<path class="st15" d="M160.97,131.39c23.34,0,46.68,0,70.02,0c0,0.45,0,0.89,0,1.34c-23.34,0-46.68,0-70.02,0
					C160.97,132.28,160.97,131.83,160.97,131.39z"/>
			</g>
			<g>
				<path class="st14" d="M160.97,138.23c23.34,0,46.68,0,70.02,0c0,0.45,0,0.89,0,1.34c-23.34,0-46.68,0-70.02,0
					C160.97,139.12,160.97,138.68,160.97,138.23z"/>
				<path class="st15" d="M160.97,139.57c23.34,0,46.68,0,70.02,0c0,0.45,0,0.89,0,1.34c-23.34,0-46.68,0-70.02,0
					C160.97,140.46,160.97,140.01,160.97,139.57z"/>
			</g>
			<g>
				<path class="st14" d="M160.97,146.41c23.34,0,46.68,0,70.02,0c0,0.45,0,0.89,0,1.34c-23.34,0-46.68,0-70.02,0
					C160.97,147.3,160.97,146.85,160.97,146.41z"/>
				<path class="st15" d="M160.97,147.74c23.34,0,46.68,0,70.02,0c0,0.45,0,0.89,0,1.34c-23.34,0-46.68,0-70.02,0
					C160.97,148.63,160.97,148.19,160.97,147.74z"/>
			</g>
			<g>
				<path class="st14" d="M160.97,154.58c23.34,0,46.68,0,70.02,0c0,0.45,0,0.89,0,1.34c-23.34,0-46.68,0-70.02,0
					C160.97,155.48,160.97,155.03,160.97,154.58z"/>
				<path class="st15" d="M160.97,155.92c23.34,0,46.68,0,70.02,0c0,0.45,0,0.89,0,1.34c-23.34,0-46.68,0-70.02,0
					C160.97,156.81,160.97,156.36,160.97,155.92z"/>
			</g>
			<g>
				<path class="st14" d="M160.97,162.76c23.34,0,46.68,0,70.02,0c0,0.45,0,0.89,0,1.34c-23.34,0-46.68,0-70.02,0
					C160.97,163.65,160.97,163.21,160.97,162.76z"/>
				<path class="st15" d="M160.97,164.09c23.34,0,46.68,0,70.02,0c0,0.45,0,0.89,0,1.34c-23.34,0-46.68,0-70.02,0
					C160.97,164.99,160.97,164.54,160.97,164.09z"/>
			</g>
			<g>
				<path class="st14" d="M160.97,170.94c23.34,0,46.68,0,70.02,0c0,0.45,0,0.89,0,1.34c-23.34,0-46.68,0-70.02,0
					C160.97,171.83,160.97,171.38,160.97,170.94z"/>
				<path class="st15" d="M160.97,172.27c23.34,0,46.68,0,70.02,0c0,0.45,0,0.89,0,1.34c-23.34,0-46.68,0-70.02,0
					C160.97,173.16,160.97,172.72,160.97,172.27z"/>
			</g>
			<g>
				<path class="st14" d="M160.97,179.11c23.34,0,46.68,0,70.02,0c0,0.45,0,0.89,0,1.34c-23.34,0-46.68,0-70.02,0
					C160.97,180.01,160.97,179.56,160.97,179.11z"/>
				<path class="st15" d="M160.97,180.45c23.34,0,46.68,0,70.02,0c0,0.45,0,0.89,0,1.34c-23.34,0-46.68,0-70.02,0
					C160.97,181.34,160.97,180.89,160.97,180.45z"/>
			</g>
			<g>
				<path class="st14" d="M160.97,187.29c23.34,0,46.68,0,70.02,0c0,0.45,0,0.89,0,1.34c-23.34,0-46.68,0-70.02,0
					C160.97,188.18,160.97,187.74,160.97,187.29z"/>
				<path class="st15" d="M160.97,188.63c23.34,0,46.68,0,70.02,0c0,0.45,0,0.89,0,1.34c-23.34,0-46.68,0-70.02,0
					C160.97,189.52,160.97,189.07,160.97,188.63z"/>
			</g>
			<g>
				<path class="st14" d="M160.97,195.47c23.34,0,46.68,0,70.02,0c0,0.45,0,0.89,0,1.34c-23.34,0-46.68,0-70.02,0
					C160.97,196.36,160.97,195.91,160.97,195.47z"/>
				<path class="st15" d="M160.97,196.8c23.34,0,46.68,0,70.02,0c0,0.45,0,0.89,0,1.34c-23.34,0-46.68,0-70.02,0
					C160.97,197.69,160.97,197.25,160.97,196.8z"/>
			</g>
		</g>
		<g>
			<rect x="160.97" y="203.64" class="st14" width="70.02" height="1.34"/>
			<rect x="160.97" y="204.98" class="st15" width="70.02" height="1.34"/>
		</g>
		<path class="st2" d="M350.77,449.68c-1.95-6.11-1.2-9.92,5.51-8.69c7.34,1.35,16.39-1.09,23.06-5.85
			c10.44-7.45,7.71-24.51-1.34-40.11c-9.4-16.21-18.5-37.62-19.38-60.83c-0.86-22.58-8.83-31.86-28.18-34.08
			c3.11-4.52,2.54-11,5.85-15.37c2.21-2.92,5.13-5.19,9.69-5.19h24.11c7.87,0,14.32-6.44,14.32-14.32v-50.57
			c0-6.02,5.32-11.55,16.33-11.48l100.94,0.67c8.35,0.05,13.63,4.03,13.37,10.81c-1.63,7.69-12.61,12.03-26.74,15.26
			c-36.71,4.17-43.32,26.11-40.78,53.47c5.35,20.05,12.32,39.74,16.04,60.16c3.65,20.04,5.63,40.46,6.02,60.83
			c0.29,15.56,0.91,30.14,8.02,44.12c2.27,4.46,6.07,8.19,5.35,14.04c-10.35,2.35-15.49,9.91-16.04,22.06L372,485.95
			c-5.78,0.08-10.78-3.52-12.53-9.02L350.77,449.68z"/>
		<path class="st10" d="M341.83,295.71c12.39-1,24.55,1.99,29.08,12.03c7.75,17.17-1.45,24.7,14,61.4
			c6.81,16.2,22.7,29.67,23.44,47.22c0.46,10.85-9.55,26.08-20.39,25.4c9.97-5.09,11.62-17,9.69-26.07
			c-3.33-15.62-18.72-26.39-24.06-41.44c-13.54-38.16-5.27-47.59-10.03-63.17C361.09,303.02,352.8,297.71,341.83,295.71z"/>
		<path class="st10" d="M468.41,235.05c-19.25,8.85-22.87,26.95-20.88,48.36c5.35,20.05,12.32,39.74,16.04,60.16
			c3.65,20.04,5.63,40.46,6.02,60.83c0.29,15.56,0.91,30.14,8.02,44.12c1.16,2.29,2.73,4.38,3.88,6.66
			c-13.01-7.02-24.9-13.08-28.02-28.12c-3.83-18.43,8.3-37.47,6.02-56.15c-4.04-33.1-23.84-61.27-24.73-96.92
			C438.11,258.15,445.42,243.75,468.41,235.05L468.41,235.05z"/>
		<path class="st2" d="M344.19,220.18h20.39c4.41,0,8.02,3.61,8.02,8.02l0,0c0,4.41-3.61,8.02-8.02,8.02h-20.39
			c-4.41,0-8.02-3.61-8.02-8.02l0,0C336.17,223.79,339.77,220.18,344.19,220.18z"/>
		<path class="st2" d="M319.62,130.94h12.53c2.11,0,3.84,1.73,3.84,3.84v46.79c0,2.11-1.73,3.84-3.84,3.84h-12.53
			c-2.12,0-3.84-1.73-3.84-3.84v-46.79C315.78,132.67,317.51,130.94,319.62,130.94z"/>
		<path class="st2" d="M375.27,122.59h93.25c3.12,0,5.68,2.56,5.68,5.68v57.82c0,3.13-2.56,5.68-5.68,5.68h-93.25
			c-3.13,0-5.68-2.56-5.68-5.68v-57.82C369.59,125.14,372.15,122.59,375.27,122.59z"/>
		<path class="st5" d="M497.26,126.76h8.86v60.83h-8.86c-2.39,0-4.34-1.95-4.34-4.34v-52.14
			C492.92,128.72,494.87,126.76,497.26,126.76z"/>
		<path class="st2" d="M523.17,181.91h23.49c-6.2,5.74-14.44,9.27-23.49,9.35V181.91L523.17,181.91z M528.75,120.58
			c7.09,1.21,13.47,4.55,18.44,9.36h-24.02v-9.36H528.75L528.75,120.58z M555.17,141.47c1.27,2.93,2.15,6.08,2.6,9.36h-34.6v-9.36
			H555.17L555.17,141.47z M557.77,160.52c-0.44,3.28-1.33,6.42-2.6,9.36h-32v-9.36H557.77z"/>
		<path class="st10" d="M301.65,507.29h179.71c3.61,0,6.57,2.96,6.57,6.57l0,0c0,3.61-2.96,6.57-6.57,6.57H301.65
			c-3.61,0-6.57-2.96-6.57-6.57l0,0C295.08,510.25,298.03,507.29,301.65,507.29z"/>
		<path class="st2" d="M506.2,122.59h6.93c0.38,0,0.68,0.31,0.68,0.68v67.82c0,0.38-0.3,0.68-0.68,0.68h-6.93
			c-0.37,0-0.68-0.31-0.68-0.68v-67.82C505.52,122.89,505.82,122.59,506.2,122.59z"/>
	</g>
</g>
<g id="heart">
</g>
<g id="heart_2_">
</g>
<g id="heart_1_">
</g>
</svg>
